<?xml version="1.0" standalone="no"?>
<!DOCTYPE svg PUBLIC "-//W3C//DTD SVG 20010904//EN"
 "http://www.w3.org/TR/2001/REC-SVG-20010904/DTD/svg10.dtd">
<svg version="1.0" xmlns="http://www.w3.org/2000/svg"
 width="724.000000pt" height="724.000000pt" viewBox="0 0 724.000000 724.000000"
 preserveAspectRatio="xMidYMid meet">
<metadata>
Created by potrace 1.11, written by Peter Selinger 2001-2013
</metadata>
<g transform="translate(0.000000,724.000000) scale(0.100000,-0.100000)"
fill="#000000" stroke="none">
<path d="M1150 6929 c-46 -18 -92 -61 -111 -103 -18 -40 -19 -132 -19 -3029
l0 -2988 78 -75 c42 -42 159 -156 259 -255 101 -98 186 -179 189 -179 4 0 98
91 209 203 112 111 228 226 258 256 l56 54 256 -256 c142 -142 259 -257 262
-257 3 0 92 87 198 193 106 105 222 220 258 255 l64 63 257 -257 256 -257 27
24 c15 13 133 129 262 257 l235 233 255 -255 c141 -141 259 -256 262 -256 3 0
122 115 263 255 l258 255 254 -253 c139 -138 257 -253 262 -255 4 -1 121 112
260 253 l252 254 0 2991 0 2991 -21 41 c-26 51 -35 61 -85 87 l-39 21 -2445
-1 c-1582 0 -2454 -4 -2470 -10z m1414 -1474 c49 -21 120 -98 154 -168 42 -87
64 -185 66 -296 6 -331 -185 -576 -382 -491 -85 36 -148 118 -194 250 -46 130
-45 320 2 461 69 207 210 304 354 244z m2281 -10 c101 -59 156 -154 200 -350
3 -11 5 -60 6 -110 2 -222 -92 -426 -224 -485 -49 -22 -127 -20 -172 4 -50 26
-114 97 -146 161 -45 93 -60 159 -65 290 -3 98 0 135 17 200 28 111 65 181
124 241 82 82 173 99 260 49z m-1255 -1229 c132 -29 230 -93 274 -179 26 -51
29 -67 29 -145 -1 -141 -49 -242 -158 -340 -31 -27 -58 -60 -60 -73 -8 -47
-15 -100 -21 -151 -4 -29 -11 -59 -17 -66 -10 -13 -75 -11 -97 3 -6 4 -10 59
-9 152 1 136 3 146 23 162 11 9 50 45 86 81 54 54 68 75 79 120 26 102 13 188
-35 232 -26 22 -135 58 -179 58 -129 0 -192 68 -127 137 23 25 27 25 105 20
45 -3 93 -8 107 -11z m51 -1105 c34 -34 38 -77 12 -122 -38 -64 -133 -57 -168
12 -50 96 78 187 156 110z m-646 -609 c73 -36 180 -77 230 -88 152 -35 265
-48 400 -48 84 0 247 12 268 19 6 2 23 6 37 9 110 19 232 61 340 117 75 38 98
41 139 19 24 -13 48 -56 47 -87 -2 -63 -100 -125 -305 -193 -327 -110 -733
-109 -1063 0 -116 39 -232 96 -268 132 -39 38 -40 84 -5 127 42 50 68 49 180
-7z"/>
</g>
</svg>
