<?xml version="1.0" standalone="no"?>
<!DOCTYPE svg PUBLIC "-//W3C//DTD SVG 20010904//EN"
 "http://www.w3.org/TR/2001/REC-SVG-20010904/DTD/svg10.dtd">
<svg version="1.0" xmlns="http://www.w3.org/2000/svg"
 width="1000.000000pt" height="1000.000000pt" viewBox="0 0 1000.000000 1000.000000"
 preserveAspectRatio="xMidYMid meet">
<metadata>
Created by potrace 1.11, written by Peter Selinger 2001-2013
</metadata>
<g transform="translate(0.000000,1000.000000) scale(0.100000,-0.100000)"
fill="#000000" stroke="none">
<path d="M2515 8299 c-56 -30 -75 -48 -96 -94 -18 -39 -19 -150 -19 -3029 l0
-2988 67 -65 c38 -36 151 -147 253 -247 102 -100 191 -186 198 -190 9 -5 79
59 217 196 112 111 228 227 259 257 l55 55 244 -245 c134 -134 251 -250 260
-258 15 -12 37 7 211 180 107 107 223 222 258 257 l65 63 256 -257 257 -256
43 38 c23 20 141 136 261 256 l220 219 255 -255 c141 -141 259 -256 262 -256
4 0 122 115 264 255 l257 254 256 -254 c141 -140 259 -255 262 -255 3 0 119
114 258 254 l252 255 -1 2988 c0 2269 -3 2996 -12 3021 -7 17 -25 46 -41 62
-60 65 139 60 -2540 60 l-2441 0 -40 -21z m1428 -1464 c83 -35 166 -157 202
-300 18 -74 24 -217 12 -297 -25 -159 -106 -301 -200 -350 -146 -74 -296 24
-370 242 -43 128 -44 320 -1 450 70 215 211 316 357 255z m2268 -1 c84 -43
150 -135 189 -259 27 -89 30 -111 30 -215 0 -186 -52 -332 -154 -432 -27 -27
-51 -46 -54 -43 -3 3 -12 -1 -20 -8 -8 -7 -42 -12 -77 -12 -51 0 -69 5 -105
29 -63 42 -97 82 -135 161 -112 232 -74 566 81 722 76 77 167 98 245 57z
m-1186 -1254 c199 -62 275 -185 242 -390 -16 -98 -64 -179 -152 -258 -31 -27
-57 -58 -59 -68 -2 -10 -6 -39 -9 -64 -23 -173 -24 -174 -78 -166 -22 3 -45 8
-50 12 -6 3 -9 63 -8 147 l2 142 82 80 c67 65 86 90 100 134 23 70 23 156 1
199 -28 55 -128 102 -216 102 -57 0 -121 22 -137 46 -18 29 -11 66 19 96 19
19 28 20 107 15 47 -3 117 -15 156 -27z m-31 -1070 c58 -22 70 -114 21 -160
-52 -49 -147 -17 -159 53 -14 81 59 137 138 107z m-619 -628 c273 -137 655
-174 990 -97 86 20 196 60 270 99 84 43 103 47 142 31 57 -24 76 -103 35 -148
-67 -74 -361 -180 -562 -203 -25 -2 -61 -7 -80 -9 -47 -6 -273 -6 -335 0 -50
5 -104 12 -160 21 -58 10 -188 45 -254 70 -219 81 -293 158 -230 238 43 55 72
54 184 -2z"/>
</g>
</svg>
